<svg width="40" height="40" viewBox="0 0 40 40" fill="none" xmlns="http://www.w3.org/2000/svg">
<path d="M10.0007 5H30.0007V8.33333H10.0007V5ZM10.0007 31.6667H30.0007V35H10.0007V31.6667ZM6.66732 8.33333H10.0007V11.6667H6.66732V8.33333ZM15.0007 8.33333H18.334V11.6667H15.0007V8.33333ZM15.0007 28.3333H18.334V31.6667H15.0007V28.3333ZM21.6673 28.3333H25.0007V31.6667H21.6673V28.3333ZM11.6673 11.6667H15.0007V28.3333H11.6673V11.6667ZM25.0007 11.6667H28.334V28.3333H25.0007V11.6667ZM21.6673 8.33333H25.0007V11.6667H21.6673V8.33333ZM33.334 8.33333H30.0007V11.6667H33.334V8.33333ZM3.33398 11.6667H6.66732V28.3333H3.33398V11.6667ZM36.6673 11.6667H33.334V28.3333H36.6673V11.6667ZM6.66732 28.3333H10.0007V31.6667H6.66732V28.3333ZM33.334 28.3333H30.0007V31.6667H33.334V28.3333Z" fill="white"/>
<path d="M5 18.3335H35V21.6668H5V18.3335Z" fill="white"/>
</svg>
