<svg xmlns="http://www.w3.org/2000/svg" width="15" height="16" viewBox="0 0 15 16" fill="none">
  <path d="M 2.993 15.458 C 2.879 15.125 2.955 14.051 3.223 13.014 C 3.872 10.236 3.795 10.014 1.924 9.014 C -0.979 7.495 -0.597 6.569 3.07 6.125 L 5.285 5.865 L 6.164 3.125 C 6.622 1.606 7.233 0.236 7.539 0.087 C 8.302 -0.394 9.677 1.162 10.594 3.532 L 11.396 5.717 L 12.924 5.606 C 14.032 5.532 14.528 5.68 14.834 6.125 C 15.216 6.68 14.987 7.051 13.65 8.384 C 11.931 10.088 11.816 10.532 12.504 12.792 C 13.115 14.829 12.542 15.31 10.709 14.236 C 9.945 13.829 9.105 13.458 8.875 13.458 C 8.608 13.458 7.5 14.051 6.431 14.755 C 4.254 16.162 3.375 16.347 2.993 15.458 Z M 6.355 12.755 L 7.233 12.088 L 6.393 11.643 C 5.629 11.273 5.514 11.31 5.171 12.162 C 4.941 12.718 4.789 13.199 4.789 13.31 C 4.789 13.68 5.514 13.421 6.355 12.755 Z M 9.754 8.828 C 9.754 7.569 9.716 7.532 8.264 7.532 C 7.271 7.532 6.698 7.717 6.546 8.125 C 6.125 9.162 6.278 9.569 7.348 10.199 C 8.799 11.051 9.754 10.495 9.754 8.828 Z M 4.407 7.903 C 4.407 7.717 4.254 7.532 4.025 7.532 C 3.834 7.532 3.643 7.717 3.643 7.903 C 3.643 8.125 3.834 8.273 4.025 8.273 C 4.254 8.273 4.407 8.125 4.407 7.903 Z M 8.99 4.532 C 8.379 2.569 7.997 2.569 7.615 4.495 C 7.386 5.569 7.462 5.68 8.341 5.68 C 9.257 5.68 9.296 5.606 8.99 4.532 Z" fill="currentColor" fill-rule="nonzero"></path>
</svg>