<svg xmlns="http://www.w3.org/2000/svg" width="32" height="26" viewBox="0 0 32 26" fill="none">
  <path d="M 22.454 0.592 C 18.265 -0.576 12.273 0.027 8.267 2.025 C 6.262 3.056 3.614 5.3 2.092 7.33 C -2.228 13.001 0.405 21.216 7.578 24.412 C 14.865 27.641 25.04 25.765 29.236 20.42 C 32.593 16.11 32.939 9.987 30.016 5.688 C 28.994 4.185 28.551 3.801 26.467 2.515 C 24.944 1.582 23.485 0.883 22.454 0.592 Z M 28.373 6.728 C 29.537 8.444 30.306 11.351 30.156 13.603 C 30.016 15.268 29.874 15.681 28.501 18.026 C 27.114 20.396 26.837 20.699 25.391 21.686 C 23.543 22.905 19.602 24.051 16.601 24.218 C 6.078 24.809 -1.248 16.686 3.087 9.28 C 4.965 6.07 9.113 2.803 12.35 1.948 C 14.073 1.513 19.022 1.666 21.267 2.22 C 23.677 2.835 27.28 5.118 28.373 6.728 Z" fill="currentColor" fill-rule="nonzero"></path>
  <path d="M 21.057 10.676 C 20.48 10.578 19.92 11.707 20.261 12.263 C 20.898 13.284 22.428 12.609 22.111 11.44 C 21.974 10.934 21.713 10.753 21.057 10.676 Z" fill="currentColor" fill-rule="nonzero"></path>
  <path d="M 10.949 9.758 C 10.269 10.292 10.237 11.031 10.87 11.49 C 11.588 12.031 12.49 11.458 12.336 10.581 C 12.21 9.883 11.385 9.413 10.949 9.758 Z" fill="currentColor" fill-rule="nonzero"></path>
  <path d="M 16.547 17.982 C 15.729 19.722 15.477 20.039 14.787 20.305 C 14.098 20.571 13.894 20.52 13.459 20.009 C 13.003 19.42 12.626 17.954 12.614 16.664 C 12.605 16.165 12.53 16.122 12.106 16.276 C 11.352 16.538 11.277 18.833 11.953 20.073 C 13.059 22.118 15.183 22.308 16.704 20.508 C 17.418 19.63 18.155 17.516 18.037 16.691 C 17.876 15.711 17.466 16.07 16.547 17.982 Z" fill="currentColor" fill-rule="nonzero"></path>
</svg>